<?xml version="1.0" encoding="UTF-8"?> <svg xmlns="http://www.w3.org/2000/svg" id="Layer_1" data-name="Layer 1" viewBox="0 0 400 400"> <defs> <style>.cls-1{fill:#009ade;}.cls-2{fill:#ffcd00;}.cls-3{fill:#fff;}.cls-4{fill:none;stroke:#101820;stroke-linecap:round;stroke-linejoin:round;stroke-width:4.99px;}</style> </defs> <title>mission</title> <path class="cls-1" d="M278,323a7.25,7.25,0,0,0,9.61-4.33c2.86-8.26,7.69-21,11.24-24.6,6.07-6.07,9.1-9.1,9.1-16.69s4.56-22.77,16.7-22.77,22.77,0,27.33-12.15,0-18.21,0-21.25,6.07-3,6.07-9.11-6.07-7.59-6.07-7.59,6.07-4.55,3-9.1a36.08,36.08,0,0,0-5.69-6.27,4.91,4.91,0,0,1-.84-6.32c2.85-4.47,6.18-12.12-1.06-16.26-10.62-6.07-27.32-12.14-24.29-19.73s4.32-9.82,1.52-18.21c-3-9.11-22.77-36.44-53.13-47.06C221.19,64,172.61,81,156.14,121.07c-34.92,85,54.64,107.77,54.64,141.17,0,0,0,12.18-10.78,28.24C200.13,291,257.46,314.6,278,323Z"></path> <path class="cls-2" d="M128.44,323a7.25,7.25,0,0,1-9.61-4.33c-2.87-8.26-7.7-21-11.24-24.6-6.07-6.07-9.11-9.1-9.11-16.69s-4.55-22.77-16.7-22.77-22.77,0-27.32-12.15,0-18.21,0-21.25-6.07-3-6.07-9.11,6.07-7.59,6.07-7.59-6.07-4.55-3-9.1a36.48,36.48,0,0,1,5.69-6.27,4.91,4.91,0,0,0,.85-6.32c-2.86-4.47-6.18-12.12,1-16.26,10.63-6.07,27.33-12.14,24.29-19.73s-4.32-9.82-1.52-18.21c3-9.11,22.77-36.44,53.13-47.06C185.22,64,233.81,81,250.28,121.07c34.91,85-54.65,107.77-54.65,141.17,0,0,0,12.18,10.79,28.24C206.28,291,149,314.6,128.44,323Z"></path> <path class="cls-3" d="M258.37,176.34h0a66,66,0,1,0-110.3,0h0l.07.11c.7,1.05,1.42,2.1,2.18,3.11,6.62,10,25.58,43.5,25.58,97.86a27.33,27.33,0,0,0,54.65,0c0-54.36,19-87.83,25.58-97.86.76-1,1.48-2.06,2.18-3.11Z"></path> <path class="cls-4" d="M211.81,234.12V131.54a7.7,7.7,0,1,1,7.7,7.7h-32.6a7.7,7.7,0,1,1,7.7-7.7V234.12"></path> <line class="cls-4" x1="187.54" y1="257.39" x2="218.87" y2="257.39"></line> <line class="cls-4" x1="187.54" y1="269.03" x2="218.87" y2="269.03"></line> <line class="cls-4" x1="187.54" y1="280.67" x2="218.87" y2="280.67"></line> </svg> 