<?xml version="1.0" encoding="UTF-8"?> <svg xmlns="http://www.w3.org/2000/svg" id="Layer_1" data-name="Layer 1" viewBox="0 0 400 400"> <defs> <style>.cls-1{fill:#fff;}.cls-2{fill:#009ade;}.cls-3{fill:#101820;}.cls-4{fill:#ffcd00;}</style> </defs> <title>vision_static</title> <path class="cls-1" d="M200.42,147.67A104.63,104.63,0,0,0,109.76,200v0a104.71,104.71,0,0,0,181.32,0A104.6,104.6,0,0,0,200.42,147.67Z"></path> <path class="cls-2" d="M200.42,252.33A104.65,104.65,0,0,1,109.75,200a104.67,104.67,0,1,0,181.33,0A104.6,104.6,0,0,1,200.42,252.33Z"></path> <circle class="cls-3" cx="200.42" cy="200" r="22.34"></circle> <path class="cls-4" d="M200.42,147.67A104.6,104.6,0,0,1,291.08,200a104.67,104.67,0,1,0-181.33,0A104.65,104.65,0,0,1,200.42,147.67Z"></path> </svg> 